<svg width="100" height="35" viewBox="0 0 100 35" fill="none" xmlns="http://www.w3.org/2000/svg">
<path d="M42.5556 18.0374C42.5556 22.6924 38.8828 26.1226 34.3755 26.1226C29.8681 26.1226 26.1953 22.6924 26.1953 18.0374C26.1953 13.3496 29.8681 9.95215 34.3755 9.95215C38.8828 9.95215 42.5556 13.3496 42.5556 18.0374ZM38.9747 18.0374C38.9747 15.1284 36.846 13.1381 34.3755 13.1381C31.9049 13.1381 29.7762 15.1284 29.7762 18.0374C29.7762 20.9172 31.9049 22.9366 34.3755 22.9366C36.846 22.9366 38.9747 20.9135 38.9747 18.0374Z" fill="#A2A2A2"/>
<path d="M60.2021 18.0374C60.2021 22.6924 56.5293 26.1226 52.0219 26.1226C47.5146 26.1226 43.8418 22.6924 43.8418 18.0374C43.8418 13.3532 47.5146 9.95215 52.0219 9.95215C56.5293 9.95215 60.2021 13.3496 60.2021 18.0374ZM56.6212 18.0374C56.6212 15.1284 54.4925 13.1381 52.0219 13.1381C49.5514 13.1381 47.4227 15.1284 47.4227 18.0374C47.4227 20.9172 49.5514 22.9366 52.0219 22.9366C54.4925 22.9366 56.6212 20.9135 56.6212 18.0374Z" fill="#A2A2A2"/>
<path d="M77.1148 10.4406V24.9561C77.1148 30.9271 73.5633 33.3658 69.3648 33.3658C65.4126 33.3658 63.0339 30.7448 62.1368 28.6014L65.2545 27.3146C65.8096 28.6306 67.1699 30.1835 69.3611 30.1835C72.0486 30.1835 73.714 28.5394 73.714 25.4446V24.2817H73.589C72.7876 25.2623 71.2435 26.119 69.2949 26.119C65.2177 26.119 61.4824 22.5976 61.4824 18.0665C61.4824 13.5027 65.2177 9.95215 69.2949 9.95215C71.2398 9.95215 72.7839 10.8088 73.589 11.7602H73.714V10.4443H77.1148V10.4406ZM73.9677 18.0665C73.9677 15.2196 72.0523 13.1381 69.6148 13.1381C67.1442 13.1381 65.0743 15.2196 65.0743 18.0665C65.0743 20.8843 67.1442 22.9366 69.6148 22.9366C72.0523 22.9366 73.9677 20.8843 73.9677 18.0665Z" fill="#A2A2A2"/>
<path d="M82.7212 1.93262V25.6269H79.2285V1.93262H82.7212Z" fill="#A2A2A2"/>
<path d="M96.3312 20.6982L99.1106 22.5354C98.2136 23.8513 96.0518 26.1187 92.3165 26.1187C87.6842 26.1187 84.2246 22.5682 84.2246 18.0335C84.2246 13.2253 87.7136 9.94824 91.9158 9.94824C96.1474 9.94824 98.2172 13.2873 98.8937 15.0917L99.265 16.0103L88.3643 20.4868C89.1989 22.1089 90.4967 22.9364 92.3165 22.9364C94.14 22.9364 95.4047 22.0469 96.3312 20.6982ZM87.7761 17.7892L95.0628 14.7892C94.6621 13.7794 93.4562 13.0759 92.0371 13.0759C90.2173 13.0759 87.6842 14.6689 87.7761 17.7892Z" fill="#A2A2A2"/>
<path d="M12.9747 15.934V12.5038H24.6328C24.7468 13.1017 24.8056 13.8088 24.8056 14.5743C24.8056 17.1479 24.096 20.3302 21.8093 22.5976C19.585 24.8941 16.7431 26.119 12.9784 26.119C6.00046 26.119 0.132812 20.4833 0.132812 13.5646C0.132812 6.64586 6.00046 1.01025 12.9784 1.01025C16.8387 1.01025 19.5887 2.51211 21.6549 4.46963L19.2137 6.89009C17.7321 5.51218 15.7247 4.44046 12.9747 4.44046C7.87914 4.44046 3.89384 8.51224 3.89384 13.5646C3.89384 18.617 7.87914 22.6887 12.9747 22.6887C16.2799 22.6887 18.1622 21.3728 19.3681 20.1771C20.346 19.2075 20.9894 17.8223 21.2431 15.9304L12.9747 15.934Z" fill="#A2A2A2"/>
</svg>
